HIERARCHY
ROOT Model
{
	OFFSET 0 0 0
	CHANNELS 6 Xposition Yposition Zposition Zrotation Xrotation Yrotation
	JOINT Model1
	{
		OFFSET 0 -2.25479 2.99384
		CHANNELS 3 Zrotation Xrotation Yrotation
		JOINT Model2
		{
			OFFSET 12.111 0 0
			CHANNELS 3 Zrotation Xrotation Yrotation
			JOINT Model3
			{
				OFFSET 11.5502 0 0
				CHANNELS 3 Zrotation Xrotation Yrotation
				JOINT Model4
				{
					OFFSET 11.781 0 0
					CHANNELS 3 Zrotation Xrotation Yrotation
					JOINT Model5
					{
						OFFSET 20.0601 0 0
						CHANNELS 3 Zrotation Xrotation Yrotation
						JOINT Model6
						{
							OFFSET 11.1962 0 0
							CHANNELS 3 Zrotation Xrotation Yrotation
							End Site
							{
								OFFSET 0 0 0
							}
						}
					}
					JOINT Model7
					{
						OFFSET 10.8223 0.417534 3.51114
						CHANNELS 3 Zrotation Xrotation Yrotation
						JOINT Model8
						{
							OFFSET -6.07944 0 0
							CHANNELS 3 Zrotation Xrotation Yrotation
							JOINT Model9
							{
								OFFSET -0.27742 10.39 -0.051239
								CHANNELS 3 Zrotation Xrotation Yrotation
								JOINT Model10
								{
									OFFSET -3.4391 -0.282043 1.86678
									CHANNELS 3 Zrotation Xrotation Yrotation
									JOINT Model11
									{
										OFFSET 13.0269 0 0
										CHANNELS 3 Zrotation Xrotation Yrotation
										JOINT Model12
										{
											OFFSET 10.8866 0 0
											CHANNELS 3 Zrotation Xrotation Yrotation
											JOINT Model13
											{
												OFFSET 16.7317 0 0
												CHANNELS 3 Zrotation Xrotation Yrotation
												JOINT Model14
												{
													OFFSET 11.8292 0 0
													CHANNELS 3 Zrotation Xrotation Yrotation
													JOINT Model15
													{
														OFFSET 4.82751 -3.73566 -0.836517
														CHANNELS 3 Zrotation Xrotation Yrotation
														JOINT Model16
														{
															OFFSET 3.75311 -0.0582886 -0.0186462
															CHANNELS 3 Zrotation Xrotation Yrotation
															JOINT Model17
															{
																OFFSET 2.88688 0.0192337 0.014801
																CHANNELS 3 Zrotation Xrotation Yrotation
																End Site
																{
																	OFFSET 0 0 0
																}
															}
														}
													}
													JOINT Model18
													{
														OFFSET 9.72197 -3.06458 0.23877
														CHANNELS 3 Zrotation Xrotation Yrotation
														JOINT Model19
														{
															OFFSET 4.61131 0 0
															CHANNELS 3 Zrotation Xrotation Yrotation
															JOINT Model20
															{
																OFFSET 2.8969 -7.62939e-006 0
																CHANNELS 3 Zrotation Xrotation Yrotation
																End Site
																{
																	OFFSET 0 0 0
																}
															}
														}
													}
													JOINT Model21
													{
														OFFSET 9.54431 -0.745064 0.588943
														CHANNELS 3 Zrotation Xrotation Yrotation
														JOINT Model22
														{
															OFFSET 5.33978 0 0
															CHANNELS 3 Zrotation Xrotation Yrotation
															JOINT Model23
															{
																OFFSET 3.03619 7.62939e-006 0
																CHANNELS 3 Zrotation Xrotation Yrotation
																End Site
																{
																	OFFSET 0 0 0
																}
															}
														}
													}
													JOINT Model24
													{
														OFFSET 9.47759 1.51286 0.485123
														CHANNELS 3 Zrotation Xrotation Yrotation
														JOINT Model25
														{
															OFFSET 4.96136 7.62939e-006 0
															CHANNELS 3 Zrotation Xrotation Yrotation
															JOINT Model26
															{
																OFFSET 2.51966 0 0
																CHANNELS 3 Zrotation Xrotation Yrotation
																End Site
																{
																	OFFSET 0 0 0
																}
															}
														}
													}
													JOINT Model27
													{
														OFFSET 9.34247 3.34117 -0.239273
														CHANNELS 3 Zrotation Xrotation Yrotation
														JOINT Model28
														{
															OFFSET 3.2826 2.28882e-005 0
															CHANNELS 3 Zrotation Xrotation Yrotation
															JOINT Model29
															{
																OFFSET 2.1292 0 0
																CHANNELS 3 Zrotation Xrotation Yrotation
																End Site
																{
																	OFFSET 0 0 0
																}
															}
														}
													}
												}
											}
										}
									}
								}
							}
						}
					}
					JOINT Model30
					{
						OFFSET 10.8223 0.4179 -3.51106
						CHANNELS 3 Zrotation Xrotation Yrotation
						JOINT Model31
						{
							OFFSET 6.07944 0 0
							CHANNELS 3 Zrotation Xrotation Yrotation
							JOINT Model32
							{
								OFFSET 0.27742 -10.39 0.051239
								CHANNELS 3 Zrotation Xrotation Yrotation
								JOINT Model33
								{
									OFFSET 3.4391 0.282043 -1.86678
									CHANNELS 3 Zrotation Xrotation Yrotation
									JOINT Model34
									{
										OFFSET -13.0269 0 0
										CHANNELS 3 Zrotation Xrotation Yrotation
										JOINT Model35
										{
											OFFSET -10.8866 0 0
											CHANNELS 3 Zrotation Xrotation Yrotation
											JOINT Model36
											{
												OFFSET -16.7317 0 0
												CHANNELS 3 Zrotation Xrotation Yrotation
												JOINT Model37
												{
													OFFSET -11.8292 0 0
													CHANNELS 3 Zrotation Xrotation Yrotation
													JOINT Model38
													{
														OFFSET -4.82751 3.73566 0.836517
														CHANNELS 3 Zrotation Xrotation Yrotation
														JOINT Model39
														{
															OFFSET -3.75311 0.0582886 0.0186462
															CHANNELS 3 Zrotation Xrotation Yrotation
															JOINT Model40
															{
																OFFSET -2.88689 -0.0192337 -0.014801
																CHANNELS 3 Zrotation Xrotation Yrotation
																End Site
																{
																	OFFSET 0 0 0
																}
															}
														}
													}
													JOINT Model41
													{
														OFFSET -9.72197 3.06459 -0.23877
														CHANNELS 3 Zrotation Xrotation Yrotation
														JOINT Model42
														{
															OFFSET -4.6113 0 0
															CHANNELS 3 Zrotation Xrotation Yrotation
															JOINT Model43
															{
																OFFSET -2.8969 0 0
																CHANNELS 3 Zrotation Xrotation Yrotation
																End Site
																{
																	OFFSET 0 0 0
																}
															}
														}
													}
													JOINT Model44
													{
														OFFSET -9.5443 0.745064 -0.588943
														CHANNELS 3 Zrotation Xrotation Yrotation
														JOINT Model45
														{
															OFFSET -5.33978 0 0
															CHANNELS 3 Zrotation Xrotation Yrotation
															JOINT Model46
															{
																OFFSET -3.03619 -1.52588e-005 0
																CHANNELS 3 Zrotation Xrotation Yrotation
																End Site
																{
																	OFFSET 0 0 0
																}
															}
														}
													}
													JOINT Model47
													{
														OFFSET -9.47758 -1.51286 -0.485123
														CHANNELS 3 Zrotation Xrotation Yrotation
														JOINT Model48
														{
															OFFSET -4.96136 -1.52588e-005 0
															CHANNELS 3 Zrotation Xrotation Yrotation
															JOINT Model49
															{
																OFFSET -2.51965 0 0
																CHANNELS 3 Zrotation Xrotation Yrotation
																End Site
																{
																	OFFSET 0 0 0
																}
															}
														}
													}
													JOINT Model50
													{
														OFFSET -9.34245 -3.34118 0.239273
														CHANNELS 3 Zrotation Xrotation Yrotation
														JOINT Model51
														{
															OFFSET -3.28259 -2.28882e-005 0
															CHANNELS 3 Zrotation Xrotation Yrotation
															JOINT Model52
															{
																OFFSET -2.1292 0 0
																CHANNELS 3 Zrotation Xrotation Yrotation
																End Site
																{
																	OFFSET 0 0 0
																}
															}
														}
													}
												}
											}
										}
									}
								}
							}
						}
					}
				}
			}
		}
	}
	JOINT Model53
	{
		OFFSET 4.38026 -2.14632 -1.11516
		CHANNELS 3 Zrotation Xrotation Yrotation
		JOINT Model54
		{
			OFFSET 0 0 4.95
			CHANNELS 3 Zrotation Xrotation Yrotation
			JOINT Model55
			{
				OFFSET 18.5642 0 0
				CHANNELS 3 Zrotation Xrotation Yrotation
				JOINT Model56
				{
					OFFSET 21.2884 0 1.52588e-005
					CHANNELS 3 Zrotation Xrotation Yrotation
					JOINT Model57
					{
						OFFSET 30.261 0 0
						CHANNELS 3 Zrotation Xrotation Yrotation
						JOINT Model58
						{
							OFFSET 11.7259 0 0
							CHANNELS 3 Zrotation Xrotation Yrotation
							JOINT Model59
							{
								OFFSET 10.682 0 0
								CHANNELS 3 Zrotation Xrotation Yrotation
								End Site
								{
									OFFSET 0 0 0
								}
							}
						}
					}
				}
			}
		}
	}
	JOINT Model60
	{
		OFFSET -4.38026 -2.14632 -1.11516
		CHANNELS 3 Zrotation Xrotation Yrotation
		JOINT Model61
		{
			OFFSET 0 0 -4.95
			CHANNELS 3 Zrotation Xrotation Yrotation
			JOINT Model62
			{
				OFFSET -18.5642 0 0
				CHANNELS 3 Zrotation Xrotation Yrotation
				JOINT Model63
				{
					OFFSET -21.2884 0 -1.52588e-005
					CHANNELS 3 Zrotation Xrotation Yrotation
					JOINT Model64
					{
						OFFSET -30.261 0 0
						CHANNELS 3 Zrotation Xrotation Yrotation
						JOINT Model65
						{
							OFFSET -11.7259 0 0
							CHANNELS 3 Zrotation Xrotation Yrotation
							JOINT Model66
							{
								OFFSET -10.682 0 0
								CHANNELS 3 Zrotation Xrotation Yrotation
								End Site
								{
									OFFSET 0 0 0
								}
							}
						}
					}
				}
			}
		}
	}
}
MOTION
Frames: 5
Frame Time: 0.033333
-424.091 150.701 160.352 69.2361 14.1464 100.737 -180 4.29621e-031 -90 2.77746 -3.2634 -0.237389 5.55492 -6.53499 -0.316567 5.55492 -6.53456 -0.31661 9.86571 18.1452 13.77 5.54482 20.0745 -12.2472 120.092 75.5343 58.4939 6.17984 -1.83732 -1.19957 -167.277 84.4999 48.8109 113.963 -10.6832 22.2446 1.36172e-005 10.3366 3.25308e-005 -45.9626 3.99511 0.438657 -1.31144e-007 5.35359 -4.90519e-007 3.72707 -0.141 -4.323 -72.0648 39.0385 39.3397 33.3638 2.10362 14.835 0.588947 0.308273 6.35287 -99.6409 81.413 100.35 -0.0181409 2.78002e-005 -0.117315 -0.124139 0.00241115 -0.799296 -79.8382 79.5773 80.5374 -0.000225779 -0.000220902 2.22357e-005 -0.00095623 0.000122922 -2.72649e-005 -66.7416 80.4058 67.2171 -0.000437134 1.59667e-005 -2.72786e-005 -0.000136606 -0.000109263 -5.45845e-005 -6.42159 81.2158 8.01779 -0.000218563 1.6929e-005 0.000212186 0.000901588 -0.000184773 -0.000218505 -59.9282 75.5373 58.5147 -14.7956 -12.9045 -3.04061 -167.277 84.4999 48.8109 -170.871 -1.6124 28.1794 3.66154e-006 6.34882 2.9421e-005 -35.3955 9.92508 0.360204 -1.14061e-005 14.3304 6.53946e-006 4.94515 0.156496 4.01395 -72.0648 39.0385 39.3397 33.3638 2.10361 14.835 0.588946 0.308273 6.35287 -99.6409 81.413 100.35 -0.0181409 3.00802e-005 -0.117315 -0.124139 0.00241113 -0.799296 -79.8382 79.5773 80.5374 -0.000260673 -0.000218565 2.35894e-005 -0.000956263 0.000122998 -2.72949e-005 -66.7416 80.4058 67.2171 -0.000437159 1.48829e-005 -2.73004e-005 -0.00013664 -0.000109281 -5.46139e-005 -6.42159 81.2158 8.01779 -0.000218592 1.95836e-005 0.000212321 0.000901549 -0.000191239 -0.000218534 0.000811311 0.56661 89.91 -12.4071 0.300378 4.17259 6.37267e-007 -2.26144 -6.29584e-009 55.5639 -5.97321 -0.00677475 -8.46596e-008 -9.05937 -8.52051e-008 -101.575 -2.78545 -1.39622 -48.4307 -0.108644 -0.975392 -180 -0.566579 -90.09 -74.2171 -20.7223 -4.9599 -7.5006e-006 -31.7903 -1.43829e-006 32.7961 8.79611 -0.00423455 6.91359e-007 13.1324 1.02987e-006 -28.8023 7.43606 -7.42805 -35.4947 5.36212e-007 -5.37467e-005 
-425.438 149.028 162.53 70.7858 11.5697 100.914 -180 4.29621e-031 -90 3.03524 -3.38283 -0.683334 6.04577 -6.79748 -1.18904 6.04577 -6.79705 -1.18909 7.26707 19.4569 15.7753 7.61163 21.6868 -12.8912 120.092 75.5343 58.4939 5.87467 0.7554 -0.486483 -167.277 84.4999 48.8109 115.291 -11.7614 25.6775 1.38595e-005 9.9163 3.24882e-005 -50.4169 3.37626 0.470015 -1.39288e-007 4.40505 -4.89826e-007 3.99723 -0.178146 -5.11094 -72.0648 39.0385 39.3397 33.3638 2.10362 14.835 0.588947 0.308273 6.35287 -99.6409 81.413 100.35 -0.0181409 2.78002e-005 -0.117315 -0.124139 0.00241115 -0.799296 -79.8382 79.5773 80.5374 -0.000225779 -0.000220902 2.22357e-005 -0.00095623 0.000122922 -2.72649e-005 -66.7416 80.4058 67.2171 -0.000437134 1.59667e-005 -2.72786e-005 -0.000136606 -0.000109263 -5.45845e-005 -6.42159 81.2158 8.01779 -0.000218563 1.6929e-005 0.000212186 0.000901588 -0.000184773 -0.000218505 -59.9282 75.5373 58.5147 -17.2873 -14.7172 -3.82948 -167.277 84.4999 48.8109 -169.686 1.40319 28.3761 1.51272e-006 10.4674 2.97354e-005 -50.2332 8.68036 0.474361 -1.1176e-005 12.3608 6.48635e-006 6.36795 0.293279 5.30843 -72.0648 39.0385 39.3397 33.3638 2.10361 14.835 0.588946 0.308273 6.35287 -99.6409 81.413 100.35 -0.0181409 3.00802e-005 -0.117315 -0.124139 0.00241113 -0.799296 -79.8382 79.5773 80.5374 -0.000260673 -0.000218565 2.35894e-005 -0.000956263 0.000122998 -2.72949e-005 -66.7416 80.4058 67.2171 -0.000437159 1.48829e-005 -2.73004e-005 -0.00013664 -0.000109281 -5.46139e-005 -6.42159 81.2158 8.01779 -0.000218592 1.95836e-005 0.000212321 0.000901549 -0.000191239 -0.000218534 0.000811311 0.56661 89.91 -12.786 0.0428229 3.21496 6.37297e-007 -1.98525 -6.29471e-009 59.0909 -7.14243 -0.00707562 -8.73212e-008 -10.8176 -8.56646e-008 -109.378 -5.83772 -1.37406 -42.0144 0.0124983 -0.467813 -180 -0.566579 -90.09 -73.2453 -22.3935 -2.7516 -7.56406e-006 -33.8893 -1.47271e-006 33.0944 12.6062 -0.00428687 5.83003e-007 18.8469 1.05976e-006 -24.9259 4.02088 -3.70098 -35.4947 3.184e-007 -2.9939e-005 
-426.291 147.898 164.216 72.1439 8.81609 100.645 -180 4.29621e-031 -90 3.25074 -3.50364 -1.04767 6.45506 -7.06109 -1.89957 6.45505 -7.06066 -1.89962 5.03891 20.8823 16.5244 9.4037 23.2385 -13.1835 120.092 75.5343 58.4939 5.38498 3.2552 0.247651 -167.277 84.4999 48.8109 115.489 -12.4495 28.2034 1.38553e-005 9.92358 3.2489e-005 -55.2934 2.58749 0.501085 -1.49515e-007 3.21057 -4.89147e-007 4.18812 -0.219524 -6.00986 -72.0648 39.0385 39.3397 33.3638 2.10362 14.835 0.588947 0.308273 6.35287 -99.6409 81.413 100.35 -0.0181409 2.78002e-005 -0.117315 -0.124139 0.00241115 -0.799296 -79.8382 79.5773 80.5374 -0.000225779 -0.000220902 2.22357e-005 -0.00095623 0.000122922 -2.72649e-005 -66.7416 80.4058 67.2171 -0.000437134 1.59667e-005 -2.72786e-005 -0.000136606 -0.000109263 -5.45845e-005 -6.42159 81.2158 8.01779 -0.000218563 1.6929e-005 0.000212186 0.000901588 -0.000184773 -0.000218505 -59.9282 75.5373 58.5147 -19.6028 -16.3501 -4.62949 -167.277 84.4999 48.8109 -170.054 3.88048 27.6168 -8.62373e-007 14.8945 3.02572e-005 -63.9437 7.35197 0.551265 -1.09465e-005 10.3662 6.44112e-006 7.22046 0.296563 4.68699 -72.0648 39.0385 39.3397 33.3638 2.10361 14.835 0.588946 0.308273 6.35287 -99.6409 81.413 100.35 -0.0181409 3.00802e-005 -0.117315 -0.124139 0.00241113 -0.799296 -79.8382 79.5773 80.5374 -0.000260673 -0.000218565 2.35894e-005 -0.000956263 0.000122998 -2.72949e-005 -66.7416 80.4058 67.2171 -0.000437159 1.48829e-005 -2.73004e-005 -0.00013664 -0.000109281 -5.46139e-005 -6.42159 81.2158 8.01779 -0.000218592 1.95836e-005 0.000212321 0.000901549 -0.000191239 -0.000218534 0.000811311 0.56661 89.91 -12.6728 -0.807822 2.27851 6.37225e-007 -2.64215 -6.29763e-009 61.179 -7.87726 -0.00724847 -8.90091e-008 -11.9223 -8.59974e-008 -114.239 -7.96985 -1.55805 -37.9247 -0.222408 -0.161016 -180 -0.566579 -90.09 -72.9281 -22.8924 -1.60754 -7.58165e-006 -34.4535 -1.48258e-006 35.9904 14.7308 -0.00462637 5.1956e-007 22.0282 1.08192e-006 -23.5843 1.05545 -0.146763 -35.4947 1.41821e-007 -1.16067e-005 
-426.778 147.616 165.489 73.1313 6.16333 100.042 -180 4.29621e-031 -90 3.38956 -3.63754 -1.248 6.71949 -7.34228 -2.28484 6.71948 -7.34185 -2.28489 3.65108 22.4095 15.8016 10.6474 24.607 -13.1725 120.092 75.5343 58.4939 5.24297 5.59236 0.880891 -167.277 84.4999 48.8109 113.694 -13.0351 29.8766 1.36184e-005 10.3345 3.25306e-005 -60.6147 2.18573 0.530998 -1.54657e-007 2.60883 -4.88886e-007 4.66901 -0.29117 -7.17268 -72.0648 39.0385 39.3397 33.3638 2.10362 14.835 0.588947 0.308273 6.35287 -99.6409 81.413 100.35 -0.0181409 2.78002e-005 -0.117315 -0.124139 0.00241115 -0.799296 -79.8382 79.5773 80.5374 -0.000225779 -0.000220902 2.22357e-005 -0.00095623 0.000122922 -2.72649e-005 -66.7416 80.4058 67.2171 -0.000437134 1.59667e-005 -2.72786e-005 -0.000136606 -0.000109263 -5.45845e-005 -6.42159 81.2158 8.01779 -0.000218563 1.6929e-005 0.000212186 0.000901588 -0.000184773 -0.000218505 -59.9282 75.5373 58.5147 -21.0624 -17.3657 -5.17336 -167.277 84.4999 48.8109 -171.619 6.08473 25.9611 -3.60101e-006 19.7804 3.10741e-005 -77.5432 5.38578 0.596863 -1.06219e-005 7.50265 6.3907e-006 8.71992 0.159815 2.18502 -72.0648 39.0385 39.3397 33.3638 2.10361 14.835 0.588946 0.308273 6.35287 -99.6409 81.413 100.35 -0.0181409 3.00802e-005 -0.117315 -0.124139 0.00241113 -0.799296 -79.8382 79.5773 80.5374 -0.000260673 -0.000218565 2.35894e-005 -0.000956263 0.000122998 -2.72949e-005 -66.7416 80.4058 67.2171 -0.000437159 1.48829e-005 -2.73004e-005 -0.00013664 -0.000109281 -5.46139e-005 -6.42159 81.2158 8.01779 -0.000218592 1.95836e-005 0.000212321 0.000901549 -0.000191239 -0.000218534 0.000811311 0.56661 89.91 -12.2664 -1.83527 1.57974 6.37105e-007 -3.72781 -6.30427e-009 61.5882 -8.29843 -0.00725818 -8.99812e-008 -12.5545 -8.62034e-008 -116.233 -9.14444 -1.66471 -35.8277 -0.265839 -0.00678076 -180 -0.566579 -90.09 -73.7182 -21.7092 -1.76188 -7.52842e-006 -32.7226 -1.45313e-006 41.7949 14.3134 -0.00525146 5.3247e-007 21.3916 1.07714e-006 -26.4339 -0.722311 1.78531 -35.4947 2.8195e-008 -1.27225e-006 
-427.045 148.293 166.433 73.6267 3.78499 99.1803 -180 4.29621e-031 -90 3.433 -3.77503 -1.24249 6.80553 -7.61745 -2.26314 6.80553 -7.61702 -2.26319 3.52428 23.9635 13.5544 11.0716 25.6919 -12.9337 120.092 75.5343 58.4939 5.90132 7.67777 1.26291 -167.277 84.4999 48.8109 109.537 -13.0693 29.8238 1.28877e-005 11.5953 3.26696e-005 -66.6562 2.36414 0.559556 -1.5222e-007 2.89417 -4.89003e-007 5.68621 -0.470168 -9.41724 -72.0648 39.0385 39.3397 33.3638 2.10362 14.835 0.588947 0.308273 6.35287 -99.6409 81.413 100.35 -0.0181409 2.78002e-005 -0.117315 -0.124139 0.00241115 -0.799296 -79.8382 79.5773 80.5374 -0.000225779 -0.000220902 2.22357e-005 -0.00095623 0.000122922 -2.72649e-005 -66.7416 80.4058 67.2171 -0.000437134 1.59667e-005 -2.72786e-005 -0.000136606 -0.000109263 -5.45845e-005 -6.42159 81.2158 8.01779 -0.000218563 1.6929e-005 0.000212186 0.000901588 -0.000184773 -0.000218505 -59.9282 75.5373 58.5147 -21.2361 -17.5061 -5.25143 -167.277 84.4999 48.8109 -174.499 7.88485 23.7367 -6.44694e-006 24.5587 3.21489e-005 -90.0784 3.29764 0.60992 -1.02886e-005 4.52276 6.35578e-006 9.64812 -0.128168 -1.51999 -72.0648 39.0385 39.3397 33.3638 2.10361 14.835 0.588946 0.308273 6.35287 -99.6409 81.413 100.35 -0.0181409 3.00802e-005 -0.117315 -0.124139 0.00241113 -0.799296 -79.8382 79.5773 80.5374 -0.000260673 -0.000218565 2.35894e-005 -0.000956263 0.000122998 -2.72949e-005 -66.7416 80.4058 67.2171 -0.000437159 1.48829e-005 -2.73004e-005 -0.00013664 -0.000109281 -5.46139e-005 -6.42159 81.2158 8.01779 -0.000218592 1.95836e-005 0.000212321 0.000901549 -0.000191239 -0.000218534 0.000811311 0.56661 89.91 -11.8737 -2.69696 1.2462 6.36986e-007 -4.80407 -6.31311e-009 60.4544 -8.31541 -0.00713358 -9.00185e-008 -12.5787 -8.62115e-008 -115.193 -9.66047 -1.50926 -35.7491 -0.28404 0.00047304 -180 -0.566579 -90.09 -75.1689 -18.9963 -2.36416 -7.41495e-006 -28.7989 -1.39506e-006 48.8002 11.9989 -0.00591391 6.01247e-007 17.9083 1.054e-006 -32.7482 -1.0723 1.71281 -35.4946 -0.000278397 2.99898e-005 
